<?xml version="1.0" standalone="no"?>
<!DOCTYPE svg PUBLIC "-//W3C//DTD SVG 20010904//EN"
 "http://www.w3.org/TR/2001/REC-SVG-20010904/DTD/svg10.dtd">
<svg version="1.0" xmlns="http://www.w3.org/2000/svg"
 width="512.000000pt" height="512.000000pt" viewBox="0 0 512.000000 512.000000"
 preserveAspectRatio="xMidYMid meet">

<g transform="translate(0.000000,512.000000) scale(0.100000,-0.100000)"
fill="#000000" stroke="none">
<path d="M3325 5112 c-63 -21 -79 -52 -104 -207 -12 -71 -24 -142 -27 -156 -4
-24 -17 -31 -97 -59 -51 -17 -121 -47 -156 -66 -58 -32 -65 -34 -85 -20 -12 8
-74 50 -136 95 -105 74 -119 81 -163 81 -48 0 -49 -1 -164 -112 -142 -139
-156 -158 -155 -210 1 -42 16 -68 153 -259 l40 -56 -40 -79 c-22 -43 -52 -115
-66 -159 -15 -44 -28 -81 -30 -83 -1 -2 -69 -14 -151 -28 -165 -28 -188 -36
-218 -77 -19 -26 -21 -45 -24 -190 -4 -179 5 -227 49 -259 17 -13 76 -27 186
-46 l160 -26 22 -70 c13 -39 43 -112 67 -163 l45 -92 -84 -119 c-102 -143
-107 -152 -107 -192 0 -50 21 -78 148 -202 l120 -118 50 0 c45 0 57 6 160 79
176 126 147 118 240 72 44 -22 115 -52 158 -67 44 -14 80 -27 82 -29 2 -1 14
-69 28 -151 28 -165 36 -188 77 -218 26 -19 45 -21 190 -24 179 -4 227 5 259
49 13 17 27 76 46 186 l26 160 85 28 c47 15 122 47 166 70 l81 42 124 -88
c138 -98 166 -111 213 -102 34 7 213 172 268 247 55 74 41 110 -123 333 -21
29 -38 55 -38 58 0 3 17 43 39 88 21 45 49 115 62 156 16 51 30 76 44 82 11 4
83 17 159 29 76 11 148 26 158 31 11 6 28 25 38 42 18 28 20 51 20 207 0 157
-2 178 -20 208 -26 42 -39 46 -222 77 -84 15 -153 27 -154 28 0 1 -13 38 -28
82 -16 44 -46 116 -68 159 l-40 79 43 61 c163 234 167 243 135 304 -23 44
-248 260 -279 267 -49 13 -86 -3 -207 -90 -65 -47 -125 -88 -133 -91 -8 -3
-39 7 -68 22 -30 15 -101 44 -159 65 l-105 37 -28 158 c-30 173 -42 201 -98
221 -36 13 -328 16 -364 5z m391 -947 c218 -73 374 -228 450 -450 25 -71 28
-94 28 -210 0 -114 -3 -140 -27 -210 -99 -299 -356 -485 -667 -485 -262 0
-485 134 -614 371 -92 168 -102 401 -27 589 69 169 229 323 401 386 146 52
317 56 456 9z"/>
<path d="M3449 3909 c-80 -9 -175 -56 -235 -117 -160 -162 -161 -417 -2 -575
203 -203 539 -145 662 113 25 54 32 80 34 151 6 138 -31 233 -127 323 -89 82
-205 119 -332 105z"/>
<path d="M1599 2591 c-14 -11 -55 -69 -92 -130 l-68 -110 -135 0 c-74 0 -138
-3 -143 -6 -5 -2 -39 43 -76 103 -108 171 -119 176 -263 116 -158 -65 -189
-83 -204 -115 -16 -33 -16 -39 22 -206 l23 -101 -107 -106 -107 -106 -111 25
c-131 30 -178 31 -207 8 -23 -19 -131 -274 -131 -310 0 -36 43 -76 152 -142
l103 -63 1 -152 1 -153 -109 -69 c-120 -75 -138 -93 -138 -139 0 -41 97 -269
128 -300 32 -32 66 -32 212 4 l115 29 80 -83 c44 -45 92 -91 108 -103 l27 -20
-30 -136 c-43 -195 -48 -187 165 -276 110 -46 150 -52 187 -28 13 9 55 66 92
127 l68 111 123 0 c67 0 135 2 151 5 28 6 33 0 105 -113 105 -165 101 -163
295 -81 193 82 190 77 146 266 l-32 137 79 81 c44 44 90 93 103 108 l23 28
130 -31 c138 -33 170 -32 203 3 24 26 122 267 122 301 0 38 -33 69 -150 140
l-110 68 0 126 c0 70 -3 136 -5 147 -4 17 16 34 117 100 162 105 161 103 85
280 -30 72 -64 140 -75 152 -33 37 -64 38 -205 5 l-131 -31 -66 68 c-36 37
-84 83 -106 102 l-42 34 29 125 c16 69 29 135 29 147 0 43 -49 79 -182 132
-140 56 -164 60 -199 32z m-190 -806 c222 -53 380 -252 381 -479 0 -139 -51
-259 -151 -356 -99 -96 -207 -140 -347 -140 -269 0 -493 224 -492 493 1 319
299 555 609 482z"/>
</g>
</svg>
